<svg xmlns="http://www.w3.org/2000/svg" viewBox="0 0 28 28" id="icon-pay-scancode">
  <path id="icon-pay-scancode_扫码" d="M21,28a1,1,0,1,1,0-2h5V21a1,1,0,1,1,2,0v5a2,2,0,0,1-2,2ZM2,28a2,2,0,0,1-2-2V21a1,1,0,0,1,1.706-.706A.994.994,0,0,1,2,21v5H7a1,1,0,1,1,0,2ZM1,15a1,1,0,0,1,0-2H27a1,1,0,0,1,0,2ZM26.294,7.708A1,1,0,0,1,26,7V2H21A1,1,0,0,1,20.293.293.994.994,0,0,1,21,0h5a2,2,0,0,1,2,2V7a1,1,0,0,1-1.706.707Zm-26,0A1,1,0,0,1,0,7V2A2,2,0,0,1,2,0H7A1,1,0,1,1,7,2H2V7a1,1,0,0,1-1.706.707Z" fill="#00c800"></path>
</svg>
