<?xml version="1.0" standalone="no"?><!DOCTYPE svg PUBLIC "-//W3C//DTD SVG 1.1//EN" "http://www.w3.org/Graphics/SVG/1.1/DTD/svg11.dtd"><svg t="1615274407035" class="icon" viewBox="0 0 1024 1024" version="1.1" xmlns="http://www.w3.org/2000/svg" p-id="3479" xmlns:xlink="http://www.w3.org/1999/xlink" width="200" height="200"><defs><style type="text/css"></style></defs><path d="M726.016 470.016l0-86.016-86.016 0 0 86.016 86.016 0zM553.984 470.016l0-86.016-84.010667 0 0 86.016 84.010667 0zM384 470.016l0-86.016-86.016 0 0 86.016 86.016 0zM854.016 86.016q34.005333 0 59.008 25.002667t25.002667 59.008l0 512q0 34.005333-25.002667 59.989333t-59.008 25.984l-598.016 0-169.984 169.984 0-768q0-34.005333 25.002667-59.008t59.008-25.002667l683.989333 0z" p-id="3480" fill="#6236FF"></path></svg>