<?xml version="1.0" standalone="no"?><!DOCTYPE svg PUBLIC "-//W3C//DTD SVG 1.1//EN" "http://www.w3.org/Graphics/SVG/1.1/DTD/svg11.dtd"><svg t="1615434170158" class="icon" viewBox="0 0 1024 1024" version="1.1" xmlns="http://www.w3.org/2000/svg" p-id="6827" xmlns:xlink="http://www.w3.org/1999/xlink" width="200" height="200"><defs><style type="text/css"></style></defs><path d="M380.8 636.8c-3.2 3.2-9.6 3.2-16 3.2-12.8 0-22.4-6.4-28.8-19.2l-3.2-6.4-91.2-209.6c0-3.2-3.2-6.4-3.2-6.4 0-9.6 6.4-16 16-16 3.2 0 6.4 0 9.6 3.2l107.2 78.4c12.8 9.6 28.8 9.6 44.8 6.4l512-233.6C836.8 128 684.8 54.4 513.6 54.4 235.2 54.4 8 248 8 488c0 129.6 70.4 249.6 174.4 329.6 12.8 9.6 16 25.6 12.8 38.4L171.2 944c0 3.2-3.2 9.6-3.2 12.8 0 9.6 6.4 16 16 16 3.2 0 6.4 0 9.6-3.2l110.4-67.2c9.6-6.4 16-9.6 25.6-9.6 6.4 0 9.6 0 16 3.2 54.4 16 110.4 25.6 164.8 25.6 278.4 0 505.6-196.8 505.6-433.6 0-72-22.4-142.4-57.6-203.2L377.6 633.6l3.2 3.2z" fill="#03c800" p-id="6828"></path></svg>